<svg width="27" height="24" viewBox="0 0 27 24" fill="none" xmlns="http://www.w3.org/2000/svg">
<path d="M13.5958 14.1087L12.1152 9.21868M13.5958 14.1087L20.6034 15.3697L17.283 4.40339L12.1152 9.21868M13.5958 14.1087L10.3926 15.0786M12.1152 9.21868L7.01461 10.763L1.914 12.3074L3.39461 17.1975L5.0131 16.7074M5.0131 16.7074L5.86314 22.4887L8.29088 21.7537L7.86586 18.863M5.0131 16.7074L7.44084 15.9723M7.44084 15.9723L7.86586 18.863M7.44084 15.9723L10.3926 15.0786M19.0084 4.9258L21.7787 1.99737M20.3125 9.23271L23.6623 8.21846M21.7614 14.0182L25.0673 14.5844M7.86586 18.863C9.6401 17.8694 10.2523 17.0761 10.3926 15.0786" stroke="white"/>
</svg>
